<svg width="15" height="18" viewBox="0 0 15 18" fill="none" xmlns="http://www.w3.org/2000/svg">
<path d="M7.36657 8.4C8.1511 8.4 8.91802 8.15368 9.57033 7.69218C10.2226 7.23067 10.7311 6.57472 11.0313 5.80727C11.3315 5.03982 11.4101 4.19534 11.257 3.38062C11.104 2.5659 10.7262 1.81753 10.1714 1.23015C9.61668 0.642773 8.90989 0.242762 8.14043 0.0807037C7.37097 -0.0813542 6.57341 0.00181979 5.84859 0.319708C5.12378 0.637596 4.50427 1.17592 4.06841 1.86661C3.63254 2.55729 3.3999 3.36932 3.3999 4.2C3.3999 5.31391 3.81782 6.3822 4.56171 7.16985C5.30561 7.95751 6.31454 8.4 7.36657 8.4ZM7.36657 1.2C7.92695 1.2 8.47475 1.37595 8.94069 1.70559C9.40662 2.03524 9.76978 2.50377 9.98423 3.05195C10.1987 3.60013 10.2548 4.20333 10.1455 4.78527C10.0361 5.36722 9.76629 5.90177 9.37004 6.32132C8.97379 6.74088 8.46894 7.0266 7.91933 7.14236C7.36971 7.25812 6.80002 7.19871 6.2823 6.97164C5.76458 6.74458 5.32207 6.36006 5.01074 5.86671C4.69941 5.37337 4.53324 4.79335 4.53324 4.2C4.53324 3.40435 4.83175 2.64129 5.3631 2.07868C5.89445 1.51607 6.61512 1.2 7.36657 1.2V1.2Z" fill="url(#paint0_linear_42_4)"/>
<path d="M14.433 12.822C13.5242 11.805 12.4291 10.9949 11.2146 10.4413C10.0001 9.88771 8.69177 9.60217 7.3695 9.60217C6.04724 9.60217 4.73886 9.88771 3.52436 10.4413C2.30986 10.9949 1.21476 11.805 0.306001 12.822C0.108978 13.0448 -0.000445917 13.3388 1.36584e-06 13.644V16.8C1.36584e-06 17.1183 0.119406 17.4235 0.331947 17.6485C0.544488 17.8736 0.832756 18 1.13333 18H13.6C13.9006 18 14.1889 17.8736 14.4014 17.6485C14.6139 17.4235 14.7333 17.1183 14.7333 16.8V13.644C14.7353 13.3396 14.628 13.0457 14.433 12.822V12.822ZM13.6 16.8H1.13333V13.638C1.93643 12.7426 2.9032 12.0296 3.9748 11.5424C5.04641 11.0551 6.20044 10.8039 7.36667 10.8039C8.5329 10.8039 9.68693 11.0551 10.7585 11.5424C11.8301 12.0296 12.7969 12.7426 13.6 13.638V16.8Z" fill="url(#paint1_linear_42_4)"/>
<defs>
<linearGradient id="paint0_linear_42_4" x1="3.3999" y1="4.2" x2="11.3332" y2="4.2" gradientUnits="userSpaceOnUse">
<stop stop-color="#0BA360"/>
<stop offset="1" stop-color="#3CBA92"/>
</linearGradient>
<linearGradient id="paint1_linear_42_4" x1="0" y1="13.8011" x2="14.7334" y2="13.8011" gradientUnits="userSpaceOnUse">
<stop stop-color="#0BA360"/>
<stop offset="1" stop-color="#3CBA92"/>
</linearGradient>
</defs>
</svg>
