<svg width="16" height="19" viewBox="0 0 16 19" fill="none" xmlns="http://www.w3.org/2000/svg">
<path d="M13.75 1.61512e-08C14.3201 -6.65307e-05 14.869 0.205512 15.2858 0.575187C15.7025 0.944863 15.956 1.45107 15.995 1.9915L16 2.13687V16.8622C16.0001 17.4039 15.7837 17.9254 15.3946 18.3214C15.0056 18.7173 14.4728 18.9582 13.904 18.9952L13.75 19H2.25C1.67987 19.0001 1.13098 18.7945 0.714247 18.4248C0.297515 18.0551 0.0440221 17.5489 0.00500013 17.0085L1.69987e-08 16.8641V2.13782C-7.00219e-05 1.59612 0.216295 1.07459 0.605369 0.678636C0.994443 0.282681 1.52721 0.0418273 2.096 0.00475084L2.25 1.61512e-08H13.75ZM13.75 1.42521H2.25C2.06876 1.42522 1.89366 1.48758 1.75707 1.60077C1.62048 1.71395 1.53165 1.8703 1.507 2.04091L1.5 2.13782V16.8631C1.5 17.2242 1.782 17.5225 2.148 17.5691L2.25 17.5757H13.75C13.9312 17.5757 14.1063 17.5134 14.2429 17.4002C14.3795 17.287 14.4684 17.1306 14.493 16.96L14.5 16.8631V2.13782C14.5 1.96562 14.4344 1.79925 14.3152 1.66947C14.1961 1.53969 14.0316 1.45528 13.852 1.43186L13.75 1.42426V1.42521ZM8.248 10.4478C8.43938 10.4459 8.62426 10.5137 8.76478 10.6371C8.90531 10.7606 8.99085 10.9304 9.00389 11.1118C9.01692 11.2932 8.95647 11.4725 8.8349 11.613C8.71334 11.7534 8.53987 11.8444 8.35 11.8673L8.248 11.873H3.75C3.55998 11.8729 3.37706 11.8043 3.23821 11.6811C3.09936 11.5578 3.01493 11.3891 3.00197 11.2089C2.98902 11.0288 3.04852 10.8507 3.16843 10.7107C3.28835 10.5706 3.45975 10.479 3.648 10.4544L3.75 10.4478H8.248ZM12.25 7.60019C12.44 7.60025 12.6229 7.66883 12.7618 7.79209C12.9006 7.91535 12.9851 8.0841 12.998 8.26423C13.011 8.44436 12.9515 8.62244 12.8316 8.7625C12.7117 8.90256 12.5402 8.99414 12.352 9.01875L12.25 9.0254H3.75C3.55862 9.02725 3.37374 8.95952 3.23322 8.83607C3.09269 8.71262 3.00715 8.5428 2.99411 8.36137C2.98108 8.17995 3.04153 8.00066 3.1631 7.86021C3.28466 7.71975 3.45813 7.62877 3.648 7.60589L3.75 7.60019H12.25ZM12.25 4.75071C12.44 4.75077 12.6229 4.81935 12.7618 4.94261C12.9006 5.06588 12.9851 5.23462 12.998 5.41475C13.011 5.59488 12.9515 5.77296 12.8316 5.91302C12.7117 6.05308 12.5402 6.14467 12.352 6.16928L12.25 6.17593H3.75C3.55998 6.17587 3.37706 6.10728 3.23821 5.98402C3.09936 5.86076 3.01493 5.69202 3.00197 5.51189C2.98902 5.33176 3.04852 5.15368 3.16843 5.01362C3.28835 4.87356 3.45975 4.78197 3.648 4.75736L3.75 4.74976H12.25V4.75071Z" fill="black" fill-opacity="0.61"/>
</svg>
