<svg width="85" height="85" viewBox="0 0 85 85" fill="none" xmlns="http://www.w3.org/2000/svg">
<path d="M65.5208 70.8334C65.5208 71.303 65.3342 71.7534 65.0021 72.0855C64.67 72.4176 64.2196 72.6042 63.75 72.6042H43.4491C42.4351 74.5473 41.1496 76.3361 39.6312 77.9167H63.75C65.6286 77.9167 67.4302 77.1704 68.7586 75.842C70.087 74.5137 70.8333 72.712 70.8333 70.8334V34.8075C70.8329 32.9291 70.0863 31.1277 68.7579 29.7996L48.1135 9.15879C48.0588 9.10789 48.0008 9.06057 47.94 9.01712C47.8962 8.9833 47.8536 8.94786 47.8125 8.91087C47.5688 8.68092 47.3096 8.46792 47.0368 8.27337C46.9461 8.21487 46.8515 8.1628 46.7535 8.11754L46.5835 8.03254L46.4064 7.92983C46.2152 7.82004 46.0204 7.70671 45.8185 7.62171C45.1132 7.34001 44.3668 7.17494 43.6085 7.13296C43.5385 7.1284 43.4687 7.12012 43.3995 7.10817C43.3034 7.09332 43.2064 7.08504 43.1091 7.08337H21.25C19.3713 7.08337 17.5697 7.82965 16.2413 9.15803C14.9129 10.4864 14.1666 12.2881 14.1666 14.1667V40.7221C15.8706 40.0111 17.6544 39.5092 19.4791 39.2275V14.1667C19.4791 13.6971 19.6657 13.2466 19.9978 12.9145C20.3299 12.5824 20.7803 12.3959 21.25 12.3959H42.5V28.3334C42.5 30.212 43.2462 32.0137 44.5746 33.342C45.903 34.6704 47.7047 35.4167 49.5833 35.4167H65.5208V70.8334ZM47.8125 16.3661L61.547 30.1042H49.5833C49.1136 30.1042 48.6632 29.9176 48.3311 29.5855C47.999 29.2534 47.8125 28.803 47.8125 28.3334V16.3661Z" fill="#CCCCCC"/>
<path d="M42.5 61.9792C42.5 64.5372 41.9961 67.0702 41.0172 69.4335C40.0383 71.7968 38.6035 73.9442 36.7946 75.753C34.9858 77.5618 32.8385 78.9966 30.4751 79.9756C28.1118 80.9545 25.5788 81.4583 23.0208 81.4583C20.4628 81.4583 17.9298 80.9545 15.5664 79.9756C13.2031 78.9966 11.0557 77.5618 9.24694 75.753C7.43813 73.9442 6.00331 71.7968 5.02439 69.4335C4.04547 67.0702 3.54163 64.5372 3.54163 61.9792C3.54163 56.813 5.59389 51.8584 9.24694 48.2053C12.9 44.5523 17.8546 42.5 23.0208 42.5C28.187 42.5 33.1416 44.5523 36.7946 48.2053C40.4477 51.8584 42.5 56.813 42.5 61.9792V61.9792ZM34.8995 53.6421C34.735 53.4772 34.5396 53.3463 34.3245 53.2571C34.1094 53.1678 33.8787 53.1218 33.6458 53.1218C33.4129 53.1218 33.1822 53.1678 32.9671 53.2571C32.752 53.3463 32.5565 53.4772 32.392 53.6421L19.4791 66.5585L13.6495 60.7254C13.317 60.3929 12.866 60.2061 12.3958 60.2061C11.9255 60.2061 11.4746 60.3929 11.142 60.7254C10.8095 61.0579 10.6227 61.5089 10.6227 61.9792C10.6227 62.4494 10.8095 62.9004 11.142 63.2329L18.2254 70.3162C18.3899 70.4812 18.5853 70.612 18.8004 70.7013C19.0156 70.7905 19.2462 70.8365 19.4791 70.8365C19.7121 70.8365 19.9427 70.7905 20.1578 70.7013C20.373 70.612 20.5684 70.4812 20.7329 70.3162L34.8995 56.1496C35.0645 55.9851 35.1953 55.7897 35.2846 55.5745C35.3738 55.3594 35.4198 55.1288 35.4198 54.8958C35.4198 54.6629 35.3738 54.4323 35.2846 54.2171C35.1953 54.002 35.0645 53.8066 34.8995 53.6421V53.6421Z" fill="#CCCCCC"/>
</svg>
