<svg width="20" height="20" viewBox="0 0 20 20" fill="none" xmlns="http://www.w3.org/2000/svg">
<path d="M7.5 9C7.257 9 7.027 9.058 6.824 9.16C7.62241 9.35788 8.3661 9.7328 9 10.257V10H12.5C12.6326 10 12.7598 10.0527 12.8536 10.1464C12.9473 10.2402 13 10.3674 13 10.5V12H10.4C10.562 12.317 10.694 12.651 10.793 13H13V14.5C13 14.6326 12.9473 14.7598 12.8536 14.8536C12.7598 14.9473 12.6326 15 12.5 15H10.978C10.9474 15.3383 10.8855 15.6731 10.793 16H12.5C12.8978 16 13.2794 15.842 13.5607 15.5607C13.842 15.2794 14 14.8978 14 14.5V10.5C14 10.1022 13.842 9.72064 13.5607 9.43934C13.2794 9.15804 12.8978 9 12.5 9H7.5ZM4 9.207C4.32688 9.11447 4.66165 9.05254 5 9.022V4C5 3.73478 5.10536 3.48043 5.29289 3.29289C5.48043 3.10536 5.73478 3 6 3H10V6.5C10 6.89782 10.158 7.27936 10.4393 7.56066C10.7206 7.84196 11.1022 8 11.5 8H15V16C15 16.2652 14.8946 16.5196 14.7071 16.7071C14.5196 16.8946 14.2652 17 14 17H10.4C10.218 17.3562 9.99767 17.6915 9.743 18H14C14.5304 18 15.0391 17.7893 15.4142 17.4142C15.7893 17.0391 16 16.5304 16 16V7.414C15.9996 7.01631 15.8414 6.63503 15.56 6.354L11.646 2.439C11.3648 2.15798 10.9835 2.00008 10.586 2H6C5.46957 2 4.96086 2.21071 4.58579 2.58579C4.21071 2.96086 4 3.46957 4 4V9.207ZM14.793 7H11.5C11.3674 7 11.2402 6.94732 11.1464 6.85355C11.0527 6.75979 11 6.63261 11 6.5V3.207L14.793 7ZM10 14.5C10 15.6935 9.52589 16.8381 8.68198 17.682C7.83807 18.5259 6.69347 19 5.5 19C4.30653 19 3.16193 18.5259 2.31802 17.682C1.47411 16.8381 1 15.6935 1 14.5C1 13.3065 1.47411 12.1619 2.31802 11.318C3.16193 10.4741 4.30653 10 5.5 10C6.69347 10 7.83807 10.4741 8.68198 11.318C9.52589 12.1619 10 13.3065 10 14.5V14.5ZM7.854 12.646C7.80755 12.5994 7.75238 12.5625 7.69163 12.5373C7.63089 12.5121 7.56577 12.4991 7.5 12.4991C7.43423 12.4991 7.36911 12.5121 7.30837 12.5373C7.24762 12.5625 7.19245 12.5994 7.146 12.646L4.5 15.293L3.854 14.646C3.76011 14.5521 3.63278 14.4994 3.5 14.4994C3.36722 14.4994 3.23989 14.5521 3.146 14.646C3.05211 14.7399 2.99937 14.8672 2.99937 15C2.99937 15.1328 3.05211 15.2601 3.146 15.354L4.146 16.354C4.19245 16.4006 4.24762 16.4375 4.30837 16.4627C4.36911 16.4879 4.43423 16.5009 4.5 16.5009C4.56577 16.5009 4.63089 16.4879 4.69163 16.4627C4.75238 16.4375 4.80755 16.4006 4.854 16.354L7.854 13.354C7.90056 13.3076 7.93751 13.2524 7.96271 13.1916C7.98792 13.1309 8.00089 13.0658 8.00089 13C8.00089 12.9342 7.98792 12.8691 7.96271 12.8084C7.93751 12.7476 7.90056 12.6924 7.854 12.646V12.646Z" fill="#CCCCCC"/>
</svg>
