<svg width="23" height="24" viewBox="0 0 23 24" fill="none" xmlns="http://www.w3.org/2000/svg">
<path d="M18.6561 6.92409H3.73123C2.70088 6.92409 1.86562 7.80243 1.86562 8.88591V18.695C1.86562 19.7785 2.70088 20.6568 3.73123 20.6568H18.6561C19.6865 20.6568 20.5217 19.7785 20.5217 18.695V8.88591C20.5217 7.80243 19.6865 6.92409 18.6561 6.92409Z" stroke="#D9D9D9" stroke-linecap="round" stroke-linejoin="round"/>
<path d="M14.9249 20.6568V4.96228C14.9249 4.44197 14.7283 3.94298 14.3785 3.57507C14.0286 3.20715 13.5541 3.00046 13.0593 3.00046H9.32806C8.83327 3.00046 8.35874 3.20715 8.00887 3.57507C7.659 3.94298 7.46245 4.44197 7.46245 4.96228V20.6568" stroke="#D9D9D9" stroke-linecap="round" stroke-linejoin="round"/>
</svg>
