<svg width="18" height="18" viewBox="0 0 18 18" fill="none" xmlns="http://www.w3.org/2000/svg">
<path d="M6.75 0.312659C6.85981 0.446098 6.92709 0.609402 6.94313 0.781471C6.95918 0.953541 6.92325 1.12647 6.84 1.27791C6.18959 2.47207 5.84993 3.81061 5.85225 5.17041C5.85225 9.69403 9.54 13.357 14.085 13.357C14.6779 13.357 15.255 13.2952 15.8096 13.177C15.9796 13.1402 16.1567 13.1543 16.3188 13.2175C16.4809 13.2807 16.6207 13.3903 16.7209 13.5325C16.8266 13.6804 16.8805 13.8591 16.8742 14.0408C16.8679 14.2225 16.8017 14.397 16.686 14.5372C15.8036 15.621 14.6905 16.4943 13.4278 17.0934C12.1651 17.6924 10.7846 18.0021 9.387 17.9999C4.20075 17.9999 0 13.8217 0 8.67366C0 4.79916 2.37825 1.47591 5.7645 0.0674086C5.93318 -0.0038806 6.12044 -0.0185124 6.29814 0.0257112C6.47585 0.0699347 6.63441 0.170626 6.75 0.312659V0.312659ZM5.46525 1.47478C4.16318 2.17322 3.07467 3.21138 2.3154 4.47894C1.55613 5.7465 1.15448 7.19609 1.15312 8.67366C1.15312 13.1962 4.842 16.8592 9.387 16.8592C10.4754 16.861 11.5533 16.647 12.5584 16.2295C13.5636 15.8121 14.4759 15.1994 15.2426 14.4269C14.8635 14.4742 14.4776 14.4978 14.085 14.4978C8.89875 14.4978 4.69913 10.3195 4.69913 5.17153C4.69913 3.85866 4.97137 2.60878 5.46525 1.47478V1.47478Z" fill="black" fill-opacity="0.61"/>
<path d="M12.1433 3.54149C12.1594 3.49278 12.1905 3.45038 12.2321 3.42033C12.2737 3.39028 12.3237 3.37411 12.375 3.37411C12.4264 3.37411 12.4764 3.39028 12.518 3.42033C12.5596 3.45038 12.5906 3.49278 12.6068 3.54149L13.0422 4.84874C13.2368 5.43149 13.6935 5.88824 14.2763 6.08287L15.5835 6.51824C15.6323 6.53438 15.6746 6.56545 15.7047 6.60706C15.7347 6.64866 15.7509 6.69867 15.7509 6.74999C15.7509 6.80131 15.7347 6.85133 15.7047 6.89293C15.6746 6.93454 15.6323 6.96561 15.5835 6.98174L14.2763 7.41712C13.9889 7.51288 13.7277 7.67425 13.5135 7.88847C13.2993 8.10268 13.1379 8.36383 13.0422 8.65124L12.6068 9.95849C12.5906 10.0072 12.5596 10.0496 12.518 10.0797C12.4764 10.1097 12.4264 10.1259 12.375 10.1259C12.3237 10.1259 12.2737 10.1097 12.2321 10.0797C12.1905 10.0496 12.1594 10.0072 12.1433 9.95849L11.7079 8.65124C11.6121 8.36383 11.4508 8.10268 11.2366 7.88847C11.0223 7.67425 10.7612 7.51288 10.4738 7.41712L9.16653 6.98174C9.11781 6.96561 9.07542 6.93454 9.04537 6.89293C9.01532 6.85133 8.99915 6.80131 8.99915 6.74999C8.99915 6.69867 9.01532 6.64866 9.04537 6.60706C9.07542 6.56545 9.11781 6.53438 9.16653 6.51824L10.4738 6.08287C10.7612 5.98711 11.0223 5.82573 11.2366 5.61152C11.4508 5.39731 11.6121 5.13615 11.7079 4.84874L12.1433 3.54149V3.54149ZM15.5959 0.111369C15.607 0.079336 15.6278 0.0515593 15.6554 0.0319007C15.6831 0.0122421 15.7161 0.00167847 15.75 0.00167847C15.7839 0.00167847 15.817 0.0122421 15.8446 0.0319007C15.8722 0.0515593 15.8931 0.079336 15.9042 0.111369L16.1944 0.982119C16.3238 1.37137 16.6287 1.67624 17.0179 1.80562L17.8887 2.09587C17.9207 2.10697 17.9485 2.12779 17.9681 2.15541C17.9878 2.18303 17.9983 2.21609 17.9983 2.24999C17.9983 2.2839 17.9878 2.31696 17.9681 2.34458C17.9485 2.3722 17.9207 2.39301 17.8887 2.40412L17.0179 2.69437C16.8261 2.75818 16.6518 2.86584 16.5088 3.00879C16.3659 3.15174 16.2582 3.32604 16.1944 3.51787L15.9042 4.38862C15.8931 4.42065 15.8722 4.44843 15.8446 4.46809C15.817 4.48775 15.7839 4.49831 15.75 4.49831C15.7161 4.49831 15.6831 4.48775 15.6554 4.46809C15.6278 4.44843 15.607 4.42065 15.5959 4.38862L15.3057 3.51787C15.2418 3.32604 15.1342 3.15174 14.9912 3.00879C14.8483 2.86584 14.674 2.75818 14.4822 2.69437L13.6114 2.40412C13.5794 2.39301 13.5516 2.3722 13.5319 2.34458C13.5123 2.31696 13.5017 2.2839 13.5017 2.24999C13.5017 2.21609 13.5123 2.18303 13.5319 2.15541C13.5516 2.12779 13.5794 2.10697 13.6114 2.09587L14.4822 1.80562C14.8714 1.67624 15.1763 1.37137 15.3057 0.982119L15.5959 0.112494V0.111369Z" fill="black" fill-opacity="0.61"/>
</svg>
