<svg width="16" height="16" viewBox="0 0 16 16" fill="none" xmlns="http://www.w3.org/2000/svg">
<path d="M14.9286 3H2.07143C1.78727 3 1.51475 3.11589 1.31381 3.32218C1.11288 3.52847 1 3.80826 1 4.1V12.9C1 13.1917 1.11288 13.4715 1.31381 13.6778C1.51475 13.8841 1.78727 14 2.07143 14H14.9286C15.2127 14 15.4853 13.8841 15.6862 13.6778C15.8871 13.4715 16 13.1917 16 12.9V4.1C16 3.80826 15.8871 3.52847 15.6862 3.32218C15.4853 3.11589 15.2127 3 14.9286 3ZM13.75 4.1L8.5 7.829L3.25 4.1H13.75ZM2.07143 12.9V4.6005L8.19464 8.951C8.28432 9.01487 8.39086 9.0491 8.5 9.0491C8.60914 9.0491 8.71568 9.01487 8.80536 8.951L14.9286 4.6005V12.9H2.07143Z" fill="black" fill-opacity="0.61"/>
</svg>
