<svg width="21" height="21" viewBox="0 0 21 21" fill="none" xmlns="http://www.w3.org/2000/svg">
<path d="M17.5337 14.7499C19.7663 12.7575 21 10.5 21 10.5C21 10.5 17.0625 3.28125 10.5 3.28125C9.23947 3.28559 7.99321 3.54825 6.83813 4.053L7.84876 5.06494C8.69852 4.75539 9.59563 4.59595 10.5 4.59375C13.2825 4.59375 15.5912 6.12675 17.283 7.81856C18.0972 8.63716 18.8271 9.53548 19.4618 10.5C19.3856 10.6142 19.3016 10.7402 19.2058 10.878C18.7661 11.508 18.1164 12.348 17.283 13.1814C17.0664 13.398 16.8407 13.6119 16.6044 13.8193L17.5337 14.7499Z" fill="#D9D9D9"/>
<path d="M14.8273 12.0435C15.1202 11.2243 15.1744 10.3388 14.9837 9.48993C14.793 8.6411 14.3651 7.86388 13.75 7.2487C13.1348 6.63352 12.3576 6.20568 11.5087 6.01496C10.6599 5.82424 9.77437 5.87848 8.95516 6.17137L10.0354 7.25156C10.5398 7.17937 11.054 7.22563 11.5375 7.3867C12.0209 7.54777 12.4602 7.81921 12.8205 8.17951C13.1808 8.53982 13.4522 8.97909 13.6133 9.46251C13.7743 9.94593 13.8206 10.4602 13.7484 10.9646L14.8273 12.0435ZM10.9646 13.7484L12.0435 14.8273C11.2243 15.1202 10.3387 15.1744 9.4899 14.9837C8.64107 14.793 7.86385 14.3652 7.24868 13.75C6.6335 13.1348 6.20566 12.3576 6.01494 11.5088C5.82422 10.6599 5.87846 9.77439 6.17135 8.95519L7.25154 10.0354C7.17934 10.5398 7.22561 11.0541 7.38668 11.5375C7.54775 12.0209 7.81919 12.4602 8.17949 12.8205C8.5398 13.1808 8.97906 13.4522 9.46248 13.6133C9.9459 13.7744 10.4602 13.8206 10.9646 13.7484V13.7484Z" fill="#D9D9D9"/>
<path d="M4.39687 7.17937C4.16062 7.38937 3.93356 7.602 3.717 7.81856C2.90279 8.63715 2.17287 9.53548 1.53825 10.5L1.79419 10.878C2.23387 11.508 2.88356 12.348 3.717 13.1814C5.40881 14.8732 7.71881 16.4062 10.5 16.4062C11.4398 16.4062 12.3244 16.2317 13.1513 15.9337L14.1619 16.947C13.0068 17.4517 11.7605 17.7144 10.5 17.7187C3.9375 17.7187 0 10.5 0 10.5C0 10.5 1.23244 8.24119 3.46631 6.25012L4.39556 7.18069L4.39687 7.17937ZM17.9104 18.8396L2.16038 3.08962L3.08963 2.16037L18.8396 17.9104L17.9104 18.8396Z" fill="#D9D9D9"/>
</svg>
