<svg width="32" height="32" viewBox="0 0 32 32" fill="none" xmlns="http://www.w3.org/2000/svg">
<path d="M15.1147 3.00399C15.3587 2.78731 15.6737 2.66763 16 2.66763C16.3263 2.66763 16.6413 2.78731 16.8853 3.00399L28.8853 13.6707C29.1362 13.9089 29.2846 14.2354 29.2992 14.5811C29.3138 14.9268 29.1934 15.2646 28.9636 15.5232C28.7337 15.7818 28.4123 15.9409 28.0673 15.9669C27.7223 15.9929 27.3807 15.8838 27.1147 15.6627L26.6667 15.2667V25.3333C26.6667 26.0406 26.3857 26.7188 25.8856 27.2189C25.3855 27.719 24.7072 28 24 28H8C7.29276 28 6.61448 27.719 6.11439 27.2189C5.61429 26.7188 5.33334 26.0406 5.33334 25.3333V15.2667L4.88534 15.6627C4.61928 15.8838 4.27767 15.9929 3.93267 15.9669C3.58767 15.9409 3.26629 15.7818 3.03643 15.5232C2.80658 15.2646 2.68624 14.9268 2.70083 14.5811C2.71543 14.2354 2.86383 13.9089 3.11467 13.6707L15.1147 3.00399ZM8 12.8933V25.3333H12V18.6667C12 18.313 12.1405 17.9739 12.3905 17.7238C12.6406 17.4738 12.9797 17.3333 13.3333 17.3333H18.6667C19.0203 17.3333 19.3594 17.4738 19.6095 17.7238C19.8595 17.9739 20 18.313 20 18.6667V25.3333H24V12.8947L16 5.78399L8 12.8947V12.8933ZM17.3333 25.3333V20H14.6667V25.3333H17.3333Z" fill="black" fill-opacity="0.61"/>
</svg>
