<svg width="18" height="18" viewBox="0 0 18 18" fill="none" xmlns="http://www.w3.org/2000/svg">
<path d="M9 0C10.6328 0 12.1387 0.402344 13.5176 1.20703C14.8965 2.01172 15.9883 3.10352 16.793 4.48242C17.5977 5.86133 18 7.36719 18 9C18 10.6328 17.5977 12.1387 16.793 13.5176C15.9883 14.8965 14.8965 15.9883 13.5176 16.793C12.1387 17.5977 10.6328 18 9 18C7.36719 18 5.86133 17.5977 4.48242 16.793C3.10352 15.9883 2.01172 14.8965 1.20703 13.5176C0.402344 12.1387 0 10.6328 0 9C0 7.36719 0.402344 5.86133 1.20703 4.48242C2.01172 3.10352 3.10352 2.01172 4.48242 1.20703C5.86133 0.402344 7.36719 0 9 0ZM12.2109 6.10547C12.1953 6.11328 12.1582 6.15039 12.0996 6.2168C12.041 6.2832 11.9883 6.32031 11.9414 6.32812C11.957 6.32812 11.9746 6.30859 11.9941 6.26953C12.0137 6.23047 12.0332 6.1875 12.0527 6.14062C12.0723 6.09375 12.0859 6.06641 12.0938 6.05859C12.1406 6.00391 12.2266 5.94531 12.3516 5.88281C12.4609 5.83594 12.6641 5.78906 12.9609 5.74219C13.2266 5.67969 13.4258 5.72266 13.5586 5.87109C13.543 5.85547 13.5801 5.80469 13.6699 5.71875C13.7598 5.63281 13.8164 5.58594 13.8398 5.57812C13.8633 5.5625 13.9219 5.54492 14.0156 5.52539C14.1094 5.50586 14.168 5.47656 14.1914 5.4375L14.2148 5.17969C14.1211 5.1875 14.0527 5.16016 14.0098 5.09766C13.9668 5.03516 13.9414 4.95313 13.9336 4.85156C13.9336 4.86719 13.9102 4.89844 13.8633 4.94531C13.8633 4.89063 13.8457 4.85938 13.8105 4.85156C13.7754 4.84375 13.7305 4.84766 13.6758 4.86328C13.6211 4.87891 13.5859 4.88281 13.5703 4.875C13.4922 4.85156 13.4336 4.82227 13.3945 4.78711C13.3555 4.75195 13.3242 4.6875 13.3008 4.59375C13.2773 4.5 13.2617 4.44141 13.2539 4.41797C13.2383 4.37891 13.2012 4.33594 13.1426 4.28906C13.084 4.24219 13.0469 4.20313 13.0312 4.17188C13.0234 4.15625 13.0137 4.13477 13.002 4.10742C12.9902 4.08008 12.9785 4.05469 12.9668 4.03125C12.9551 4.00781 12.9395 3.98633 12.9199 3.9668C12.9004 3.94727 12.8789 3.9375 12.8555 3.9375C12.832 3.9375 12.8047 3.95703 12.7734 3.99609C12.7422 4.03516 12.7129 4.07422 12.6855 4.11328C12.6582 4.15234 12.6406 4.17188 12.6328 4.17188C12.6094 4.15625 12.5859 4.15039 12.5625 4.1543C12.5391 4.1582 12.5215 4.16211 12.5098 4.16602C12.498 4.16992 12.4805 4.18164 12.457 4.20117C12.4336 4.2207 12.4141 4.23437 12.3984 4.24219C12.375 4.25781 12.3418 4.26953 12.2988 4.27734C12.2559 4.28516 12.2227 4.29297 12.1992 4.30078C12.3164 4.26172 12.3125 4.21875 12.1875 4.17188C12.1094 4.14062 12.0469 4.12891 12 4.13672C12.0703 4.10547 12.0996 4.05859 12.0879 3.99609C12.0762 3.93359 12.043 3.87891 11.9883 3.83203H12.0469C12.0391 3.80078 12.0059 3.76758 11.9473 3.73242C11.8887 3.69727 11.8203 3.66406 11.7422 3.63281C11.6641 3.60156 11.6133 3.57813 11.5898 3.5625C11.5273 3.52344 11.3945 3.48633 11.1914 3.45117C10.9883 3.41602 10.8594 3.41406 10.8047 3.44531C10.7656 3.49219 10.748 3.5332 10.752 3.56836C10.7559 3.60352 10.7715 3.6582 10.7988 3.73242C10.8262 3.80664 10.8398 3.85547 10.8398 3.87891C10.8477 3.92578 10.8262 3.97656 10.7754 4.03125C10.7246 4.08594 10.6992 4.13281 10.6992 4.17188C10.6992 4.22656 10.7539 4.28711 10.8633 4.35352C10.9727 4.41992 11.0117 4.50391 10.9805 4.60547C10.957 4.66797 10.8945 4.73047 10.793 4.79297C10.6914 4.85547 10.6289 4.90234 10.6055 4.93359C10.5664 4.99609 10.5605 5.06836 10.5879 5.15039C10.6152 5.23242 10.6563 5.29688 10.7109 5.34375C10.7266 5.35938 10.7324 5.375 10.7285 5.39062C10.7246 5.40625 10.7109 5.42383 10.6875 5.44336C10.6641 5.46289 10.6426 5.47852 10.623 5.49023C10.6035 5.50195 10.5781 5.51562 10.5469 5.53125L10.5117 5.55469C10.4258 5.59375 10.3457 5.57031 10.2715 5.48438C10.1973 5.39844 10.1445 5.29688 10.1133 5.17969C10.0586 4.98438 9.99609 4.86719 9.92578 4.82812C9.74609 4.76562 9.63281 4.76953 9.58594 4.83984C9.54688 4.73828 9.38672 4.63672 9.10547 4.53516C8.91016 4.46484 8.68359 4.44922 8.42578 4.48828C8.47266 4.48047 8.47266 4.42187 8.42578 4.3125C8.37109 4.19531 8.29688 4.14844 8.20312 4.17188C8.22656 4.125 8.24219 4.05664 8.25 3.9668C8.25781 3.87695 8.26172 3.82422 8.26172 3.80859C8.28516 3.70703 8.33203 3.61719 8.40234 3.53906C8.41016 3.53125 8.4375 3.49805 8.48438 3.43945C8.53125 3.38086 8.56836 3.32812 8.5957 3.28125C8.62305 3.23438 8.625 3.21094 8.60156 3.21094C8.875 3.24219 9.07031 3.19922 9.1875 3.08203C9.22656 3.04297 9.27148 2.97656 9.32227 2.88281C9.37305 2.78906 9.41406 2.72266 9.44531 2.68359C9.51562 2.63672 9.57031 2.61523 9.60938 2.61914C9.64844 2.62305 9.70508 2.64453 9.7793 2.68359C9.85352 2.72266 9.91016 2.74219 9.94922 2.74219C10.0586 2.75 10.1191 2.70703 10.1309 2.61328C10.1426 2.51953 10.1133 2.44141 10.043 2.37891C10.1367 2.38672 10.1484 2.32031 10.0781 2.17969C10.0469 2.125 10.0156 2.08984 9.98438 2.07422C9.89062 2.04297 9.78516 2.0625 9.66797 2.13281C9.60547 2.16406 9.61328 2.19531 9.69141 2.22656C9.68359 2.21875 9.64648 2.25977 9.58008 2.34961C9.51367 2.43945 9.44922 2.50781 9.38672 2.55469C9.32422 2.60156 9.26172 2.58203 9.19922 2.49609C9.19141 2.48828 9.16992 2.43555 9.13477 2.33789C9.09961 2.24023 9.0625 2.1875 9.02344 2.17969C8.96094 2.17969 8.89844 2.23828 8.83594 2.35547C8.85938 2.29297 8.81641 2.23437 8.70703 2.17969C8.59766 2.125 8.50391 2.09375 8.42578 2.08594C8.57422 1.99219 8.54297 1.88672 8.33203 1.76953C8.27734 1.73828 8.19727 1.71875 8.0918 1.71094C7.98633 1.70312 7.91016 1.71875 7.86328 1.75781C7.82422 1.8125 7.80273 1.85742 7.79883 1.89258C7.79492 1.92773 7.81445 1.95898 7.85742 1.98633C7.90039 2.01367 7.94141 2.03516 7.98047 2.05078C8.01953 2.06641 8.06445 2.08203 8.11523 2.09766C8.16602 2.11328 8.19922 2.125 8.21484 2.13281C8.32422 2.21094 8.35547 2.26562 8.30859 2.29688C8.29297 2.30469 8.25977 2.31836 8.20898 2.33789C8.1582 2.35742 8.11328 2.375 8.07422 2.39062C8.03516 2.40625 8.01172 2.42187 8.00391 2.4375C7.98047 2.46875 7.98047 2.52344 8.00391 2.60156C8.02734 2.67969 8.01953 2.73437 7.98047 2.76562C7.94141 2.72656 7.90625 2.6582 7.875 2.56055C7.84375 2.46289 7.81641 2.39844 7.79297 2.36719C7.84766 2.4375 7.75 2.46094 7.5 2.4375L7.38281 2.42578C7.35156 2.42578 7.28906 2.43359 7.19531 2.44922C7.10156 2.46484 7.02148 2.46875 6.95508 2.46094C6.88867 2.45312 6.83594 2.42187 6.79688 2.36719C6.76562 2.30469 6.76562 2.22656 6.79688 2.13281C6.80469 2.10156 6.82031 2.09375 6.84375 2.10938C6.8125 2.08594 6.76953 2.04883 6.71484 1.99805C6.66016 1.94727 6.62109 1.91406 6.59766 1.89844C6.23828 2.01562 5.87109 2.17578 5.49609 2.37891C5.54297 2.38672 5.58984 2.38281 5.63672 2.36719C5.67578 2.35156 5.72656 2.32617 5.78906 2.29102C5.85156 2.25586 5.89062 2.23438 5.90625 2.22656C6.17187 2.11719 6.33594 2.08984 6.39844 2.14453L6.45703 2.08594C6.56641 2.21094 6.64453 2.30859 6.69141 2.37891C6.63672 2.34766 6.51953 2.34375 6.33984 2.36719C6.18359 2.41406 6.09766 2.46094 6.08203 2.50781C6.13672 2.60156 6.15625 2.67188 6.14062 2.71875C6.10937 2.69531 6.06445 2.65625 6.00586 2.60156C5.94727 2.54688 5.89062 2.50391 5.83594 2.47266C5.78125 2.44141 5.72266 2.42188 5.66016 2.41406C5.53516 2.41406 5.44922 2.41797 5.40234 2.42578C4.26172 3.05078 3.34375 3.91797 2.64844 5.02734C2.70312 5.08203 2.75 5.11328 2.78906 5.12109C2.82031 5.12891 2.83984 5.16406 2.84766 5.22656C2.85547 5.28906 2.86523 5.33203 2.87695 5.35547C2.88867 5.37891 2.93359 5.36719 3.01172 5.32031C3.08203 5.38281 3.09375 5.45703 3.04688 5.54297C3.05469 5.53516 3.22656 5.64063 3.5625 5.85938C3.71094 5.99219 3.79297 6.07422 3.80859 6.10547C3.83203 6.19141 3.79297 6.26172 3.69141 6.31641C3.68359 6.30078 3.64844 6.26562 3.58594 6.21094C3.52344 6.15625 3.48828 6.14062 3.48047 6.16406C3.45703 6.20312 3.45898 6.27539 3.48633 6.38086C3.51367 6.48633 3.55469 6.53516 3.60938 6.52734C3.55469 6.52734 3.51758 6.58984 3.49805 6.71484C3.47852 6.83984 3.46875 6.97852 3.46875 7.13086C3.46875 7.2832 3.46484 7.375 3.45703 7.40625L3.48047 7.41797C3.45703 7.51172 3.47852 7.64648 3.54492 7.82227C3.61133 7.99805 3.69531 8.07422 3.79688 8.05078C3.69531 8.07422 3.77344 8.24219 4.03125 8.55469C4.07812 8.61719 4.10937 8.65234 4.125 8.66016C4.14844 8.67578 4.19531 8.70508 4.26562 8.74805C4.33594 8.79102 4.39453 8.83008 4.44141 8.86523C4.48828 8.90039 4.52734 8.94141 4.55859 8.98828C4.58984 9.02734 4.62891 9.11523 4.67578 9.25195C4.72266 9.38867 4.77734 9.48047 4.83984 9.52734C4.82422 9.57422 4.86133 9.65234 4.95117 9.76172C5.04102 9.87109 5.08203 9.96094 5.07422 10.0312C5.06641 10.0312 5.05664 10.0352 5.04492 10.043C5.0332 10.0508 5.02344 10.0547 5.01562 10.0547C5.03906 10.1094 5.09961 10.1641 5.19727 10.2188C5.29492 10.2734 5.35547 10.3242 5.37891 10.3711C5.38672 10.3945 5.39453 10.4336 5.40234 10.4883C5.41016 10.543 5.42187 10.5859 5.4375 10.6172C5.45313 10.6484 5.48438 10.6563 5.53125 10.6406C5.54688 10.4844 5.45313 10.2422 5.25 9.91406C5.13281 9.71875 5.06641 9.60547 5.05078 9.57422C5.02734 9.53516 5.00586 9.47461 4.98633 9.39258C4.9668 9.31055 4.94922 9.25391 4.93359 9.22266C4.94922 9.22266 4.97266 9.22852 5.00391 9.24023C5.03516 9.25195 5.06836 9.26562 5.10352 9.28125C5.13867 9.29688 5.16797 9.3125 5.19141 9.32812C5.21484 9.34375 5.22266 9.35547 5.21484 9.36328C5.19141 9.41797 5.19922 9.48633 5.23828 9.56836C5.27734 9.65039 5.32422 9.72266 5.37891 9.78516C5.43359 9.84766 5.5 9.92187 5.57812 10.0078C5.65625 10.0938 5.70312 10.1445 5.71875 10.1602C5.76562 10.207 5.82031 10.2832 5.88281 10.3887C5.94531 10.4941 5.94531 10.5469 5.88281 10.5469C5.95312 10.5469 6.03125 10.5879 6.11719 10.6699C6.20313 10.752 6.26953 10.8281 6.31641 10.8984C6.35547 10.9609 6.38672 11.0625 6.41016 11.2031C6.43359 11.3438 6.45312 11.4375 6.46875 11.4844C6.48438 11.5391 6.51758 11.5918 6.56836 11.6426C6.61914 11.6934 6.66797 11.7305 6.71484 11.7539L6.90234 11.8477L7.05469 11.9297C7.09375 11.9453 7.16602 11.9863 7.27148 12.0527C7.37695 12.1191 7.46094 12.1641 7.52344 12.1875C7.60156 12.2188 7.66406 12.2344 7.71094 12.2344C7.75781 12.2344 7.81445 12.2246 7.88086 12.2051C7.94727 12.1855 8 12.1719 8.03906 12.1641C8.15625 12.1484 8.26953 12.207 8.37891 12.3398C8.48828 12.4727 8.57031 12.5547 8.625 12.5859C8.90625 12.7344 9.12109 12.7773 9.26953 12.7148C9.25391 12.7227 9.25586 12.752 9.27539 12.8027C9.29492 12.8535 9.32617 12.9141 9.36914 12.9844C9.41211 13.0547 9.44727 13.1113 9.47461 13.1543C9.50195 13.1973 9.52344 13.2305 9.53906 13.2539C9.57812 13.3008 9.64844 13.3594 9.75 13.4297C9.85156 13.5 9.92188 13.5586 9.96094 13.6055C10.0078 13.5742 10.0352 13.5391 10.043 13.5C10.0195 13.5625 10.0469 13.6406 10.125 13.7344C10.2031 13.8281 10.2734 13.8672 10.3359 13.8516C10.4453 13.8281 10.5 13.7031 10.5 13.4766C10.2578 13.5938 10.0664 13.5234 9.92578 13.2656C9.92578 13.2578 9.91602 13.2363 9.89648 13.2012C9.87695 13.166 9.86133 13.1328 9.84961 13.1016C9.83789 13.0703 9.82813 13.0371 9.82031 13.002C9.8125 12.9668 9.8125 12.9375 9.82031 12.9141C9.82813 12.8906 9.84766 12.8789 9.87891 12.8789C9.94922 12.8789 9.98828 12.8652 9.99609 12.8379C10.0039 12.8105 9.99609 12.7617 9.97266 12.6914C9.94922 12.6211 9.93359 12.5703 9.92578 12.5391C9.91797 12.4766 9.875 12.3984 9.79688 12.3047C9.71875 12.2109 9.67188 12.1523 9.65625 12.1289C9.61719 12.1992 9.55469 12.2305 9.46875 12.2227C9.38281 12.2148 9.32031 12.1797 9.28125 12.1172C9.28125 12.125 9.27539 12.1465 9.26367 12.1816C9.25195 12.2168 9.24609 12.2422 9.24609 12.2578C9.14453 12.2578 9.08594 12.2539 9.07031 12.2461C9.07813 12.2227 9.08789 12.1543 9.09961 12.041C9.11133 11.9277 9.125 11.8398 9.14062 11.7773C9.14844 11.7461 9.16992 11.6992 9.20508 11.6367C9.24023 11.5742 9.26953 11.5176 9.29297 11.4668C9.31641 11.416 9.33203 11.3672 9.33984 11.3203C9.34766 11.2734 9.33008 11.2363 9.28711 11.209C9.24414 11.1816 9.17578 11.1719 9.08203 11.1797C8.93359 11.1875 8.83203 11.2656 8.77734 11.4141C8.76953 11.4375 8.75781 11.4785 8.74219 11.5371C8.72656 11.5957 8.70703 11.6406 8.68359 11.6719C8.66016 11.7031 8.625 11.7305 8.57812 11.7539C8.52344 11.7773 8.42969 11.7852 8.29688 11.7773C8.16406 11.7695 8.07031 11.75 8.01562 11.7188C7.91406 11.6562 7.82617 11.543 7.75195 11.3789C7.67773 11.2148 7.64062 11.0703 7.64062 10.9453C7.64062 10.8672 7.65039 10.7637 7.66992 10.6348C7.68945 10.5059 7.70117 10.4082 7.70508 10.3418C7.70898 10.2754 7.6875 10.1797 7.64062 10.0547C7.66406 10.0391 7.69922 10.002 7.74609 9.94336C7.79297 9.88477 7.83203 9.84375 7.86328 9.82031C7.87891 9.8125 7.89648 9.80664 7.91602 9.80273C7.93555 9.79883 7.95312 9.79883 7.96875 9.80273C7.98438 9.80664 8 9.80078 8.01562 9.78516C8.03125 9.76953 8.04297 9.74609 8.05078 9.71484C8.04297 9.70703 8.02734 9.69531 8.00391 9.67969C7.98047 9.65625 7.96484 9.64453 7.95703 9.64453C8.01172 9.66797 8.12305 9.66211 8.29102 9.62695C8.45898 9.5918 8.56641 9.59766 8.61328 9.64453C8.73047 9.73047 8.81641 9.72266 8.87109 9.62109C8.87109 9.61328 8.86133 9.57617 8.8418 9.50977C8.82227 9.44336 8.82031 9.39062 8.83594 9.35156C8.875 9.5625 8.98828 9.59766 9.17578 9.45703C9.19922 9.48047 9.25977 9.5 9.35742 9.51562C9.45508 9.53125 9.52344 9.55078 9.5625 9.57422C9.58594 9.58984 9.61328 9.61133 9.64453 9.63867C9.67578 9.66602 9.69727 9.68359 9.70898 9.69141C9.7207 9.69922 9.74023 9.69727 9.76758 9.68555C9.79492 9.67383 9.82813 9.64844 9.86719 9.60938C9.94531 9.71875 9.99219 9.8125 10.0078 9.89062C10.0938 10.2031 10.168 10.375 10.2305 10.4062C10.2852 10.4297 10.3281 10.4375 10.3594 10.4297C10.3906 10.4219 10.4082 10.3848 10.4121 10.3184C10.416 10.252 10.416 10.1973 10.4121 10.1543C10.4082 10.1113 10.4023 10.0625 10.3945 10.0078L10.3828 9.91406V9.70312L10.3711 9.60938C10.2539 9.58594 10.1816 9.53906 10.1543 9.46875C10.127 9.39844 10.1328 9.32617 10.1719 9.25195C10.2109 9.17773 10.2695 9.10547 10.3477 9.03516C10.3555 9.02734 10.3867 9.01367 10.4414 8.99414C10.4961 8.97461 10.5566 8.94922 10.623 8.91797C10.6895 8.88672 10.7383 8.85547 10.7695 8.82422C10.9336 8.67578 10.9922 8.53906 10.9453 8.41406C11 8.41406 11.043 8.37891 11.0742 8.30859C11.0664 8.30859 11.0469 8.29688 11.0156 8.27344C10.9844 8.25 10.9551 8.23047 10.9277 8.21484C10.9004 8.19922 10.8828 8.19141 10.875 8.19141C10.9453 8.15234 10.9531 8.08984 10.8984 8.00391C10.9375 7.98047 10.9668 7.9375 10.9863 7.875C11.0059 7.8125 11.0352 7.77344 11.0742 7.75781C11.1445 7.85156 11.2266 7.85937 11.3203 7.78125C11.3828 7.71875 11.3867 7.65625 11.332 7.59375C11.3711 7.53906 11.4512 7.49805 11.5723 7.4707C11.6934 7.44336 11.7656 7.40625 11.7891 7.35938C11.8437 7.375 11.875 7.36719 11.8828 7.33594C11.8906 7.30469 11.8945 7.25781 11.8945 7.19531C11.8945 7.13281 11.9062 7.08594 11.9297 7.05469C11.9609 7.01563 12.0195 6.98047 12.1055 6.94922C12.1914 6.91797 12.2422 6.89844 12.2578 6.89062L12.457 6.76172C12.4805 6.73047 12.4805 6.71484 12.457 6.71484C12.5977 6.73047 12.7187 6.6875 12.8203 6.58594C12.8984 6.5 12.875 6.42188 12.75 6.35156C12.7734 6.30469 12.7617 6.26758 12.7148 6.24023C12.668 6.21289 12.6094 6.19141 12.5391 6.17578C12.5625 6.16797 12.6074 6.16602 12.6738 6.16992C12.7402 6.17383 12.7812 6.16797 12.7969 6.15234C12.9141 6.07422 12.8867 6.01172 12.7148 5.96484C12.582 5.92578 12.4141 5.97266 12.2109 6.10547ZM10.3008 16.3828C11.9102 16.1016 13.2813 15.3633 14.4141 14.168C14.3906 14.1445 14.3418 14.127 14.2676 14.1152C14.1934 14.1035 14.1445 14.0898 14.1211 14.0742C13.9805 14.0195 13.8867 13.9883 13.8398 13.9805C13.8477 13.9258 13.8379 13.875 13.8105 13.8281C13.7832 13.7812 13.752 13.7461 13.7168 13.7227C13.6816 13.6992 13.6328 13.668 13.5703 13.6289C13.5078 13.5898 13.4648 13.5625 13.4414 13.5469C13.4258 13.5312 13.3984 13.5078 13.3594 13.4766C13.3203 13.4453 13.293 13.4238 13.2773 13.4121C13.2617 13.4004 13.2324 13.3828 13.1895 13.3594C13.1465 13.3359 13.1133 13.3281 13.0898 13.3359C13.0664 13.3438 13.0273 13.3477 12.9727 13.3477L12.9375 13.3594C12.9141 13.3672 12.8926 13.377 12.873 13.3887C12.8535 13.4004 12.832 13.4121 12.8086 13.4238C12.7852 13.4355 12.7695 13.4473 12.7617 13.459C12.7539 13.4707 12.7539 13.4805 12.7617 13.4883C12.5977 13.3555 12.457 13.2695 12.3398 13.2305C12.3008 13.2227 12.2578 13.2012 12.2109 13.166C12.1641 13.1309 12.123 13.1035 12.0879 13.084C12.0527 13.0645 12.0137 13.0586 11.9707 13.0664C11.9277 13.0742 11.8828 13.1016 11.8359 13.1484C11.7969 13.1875 11.7734 13.2461 11.7656 13.3242C11.7578 13.4023 11.75 13.4531 11.7422 13.4766C11.6875 13.4375 11.6875 13.3691 11.7422 13.2715C11.7969 13.1738 11.8047 13.1016 11.7656 13.0547C11.7422 13.0078 11.7012 12.9902 11.6426 13.002C11.584 13.0137 11.5371 13.0312 11.502 13.0547C11.4668 13.0781 11.4219 13.1113 11.3672 13.1543C11.3125 13.1973 11.2773 13.2227 11.2617 13.2305C11.2461 13.2383 11.2129 13.2598 11.1621 13.2949C11.1113 13.3301 11.0781 13.3594 11.0625 13.3828C11.0391 13.4141 11.0156 13.4609 10.9922 13.5234C10.9688 13.5859 10.9492 13.6289 10.9336 13.6523C10.918 13.6211 10.873 13.5957 10.7988 13.5762C10.7246 13.5566 10.6875 13.5352 10.6875 13.5117C10.7031 13.5898 10.7187 13.7266 10.7344 13.9219C10.75 14.1172 10.7695 14.2656 10.793 14.3672C10.8477 14.6094 10.8008 14.7969 10.6523 14.9297C10.4414 15.125 10.3281 15.2812 10.3125 15.3984C10.2812 15.5703 10.3281 15.6719 10.4531 15.7031C10.4531 15.7578 10.4219 15.8379 10.3594 15.9434C10.2969 16.0488 10.2695 16.1328 10.2773 16.1953C10.2773 16.2422 10.2852 16.3047 10.3008 16.3828Z" fill="black" fill-opacity="0.61"/>
</svg>
