<svg width="23" height="25" viewBox="0 0 23 25" fill="none" xmlns="http://www.w3.org/2000/svg">
<path d="M17.7233 11.4126H4.66403C3.63368 11.4126 2.79842 12.2909 2.79842 13.3744V20.2408C2.79842 21.3243 3.63368 22.2026 4.66403 22.2026H17.7233C18.7537 22.2026 19.5889 21.3243 19.5889 20.2408V13.3744C19.5889 12.2909 18.7537 11.4126 17.7233 11.4126Z" stroke="#D9D9D9" stroke-linecap="round" stroke-linejoin="round"/>
<path d="M6.52965 11.4126V7.48897C6.52965 6.18821 7.02104 4.94072 7.89571 4.02094C8.77039 3.10116 9.9567 2.58443 11.1937 2.58443C12.4307 2.58443 13.617 3.10116 14.4916 4.02094C15.3663 4.94072 15.8577 6.18821 15.8577 7.48897V11.4126" stroke="#D9D9D9" stroke-linecap="round" stroke-linejoin="round"/>
</svg>
