<svg width="31" height="31" viewBox="0 0 31 31" fill="none" xmlns="http://www.w3.org/2000/svg">
<path d="M27.8099 18.6901L25.1875 16.0677V12.5938C25.1845 10.193 24.2914 7.8787 22.681 6.09826C21.0705 4.31783 18.8571 3.19778 16.4688 2.95469V0.96875H14.5312V2.95469C12.1429 3.19778 9.92946 4.31783 8.31901 6.09826C6.70857 7.8787 5.8155 10.193 5.8125 12.5938V16.0677L3.19009 18.6901C3.00841 18.8717 2.9063 19.1181 2.90625 19.375V22.2812C2.90625 22.5382 3.00831 22.7846 3.18999 22.9663C3.37167 23.1479 3.61807 23.25 3.875 23.25H10.6562V24.0027C10.6352 25.2317 11.0684 26.4253 11.8728 27.3546C12.6772 28.284 13.7963 28.8839 15.0156 29.0392C15.6891 29.106 16.3691 29.0311 17.0118 28.8193C17.6546 28.6076 18.2459 28.2636 18.7478 27.8095C19.2496 27.3555 19.6509 26.8015 19.9257 26.183C20.2006 25.5646 20.343 24.8955 20.3438 24.2188V23.25H27.125C27.3819 23.25 27.6283 23.1479 27.81 22.9663C27.9917 22.7846 28.0938 22.5382 28.0938 22.2812V19.375C28.0937 19.1181 27.9916 18.8717 27.8099 18.6901ZM18.4062 24.2188C18.4062 24.9895 18.1001 25.7288 17.555 26.2738C17.01 26.8188 16.2708 27.125 15.5 27.125C14.7292 27.125 13.99 26.8188 13.445 26.2738C12.8999 25.7288 12.5938 24.9895 12.5938 24.2188V23.25H18.4062V24.2188ZM26.1562 21.3125H4.84375V19.7761L7.46616 17.1537C7.64784 16.972 7.74995 16.7257 7.75 16.4688V12.5938C7.75 10.5383 8.56652 8.56708 10.0199 7.11367C11.4733 5.66027 13.4446 4.84375 15.5 4.84375C17.5554 4.84375 19.5267 5.66027 20.9801 7.11367C22.4335 8.56708 23.25 10.5383 23.25 12.5938V16.4688C23.2501 16.7257 23.3522 16.972 23.5338 17.1537L26.1562 19.7761V21.3125Z" fill="black" fill-opacity="0.61"/>
</svg>
