<svg width="18" height="18" viewBox="0 0 18 18" fill="none" xmlns="http://www.w3.org/2000/svg">
<path d="M12.5 2H5.5C5.23478 2 4.98043 2.10536 4.79289 2.29289C4.60536 2.48043 4.5 2.73478 4.5 3V15C4.5 15.2652 4.60536 15.5196 4.79289 15.7071C4.98043 15.8946 5.23478 16 5.5 16H12.5C12.7652 16 13.0196 15.8946 13.2071 15.7071C13.3946 15.5196 13.5 15.2652 13.5 15V3C13.5 2.73478 13.3946 2.48043 13.2071 2.29289C13.0196 2.10536 12.7652 2 12.5 2V2ZM9.5 15H8.5V14H9.5V15ZM5.5 13V3H12.5V13H5.5Z" fill="black" fill-opacity="0.61"/>
</svg>
