<svg width="31" height="31" viewBox="0 0 31 31" fill="none" xmlns="http://www.w3.org/2000/svg">
<path fill-rule="evenodd" clip-rule="evenodd" d="M15.5 27.125C21.9203 27.125 27.125 21.9202 27.125 15.5C27.125 9.07978 21.9203 3.87501 15.5 3.87501C9.07981 3.87501 3.87504 9.07978 3.87504 15.5C3.87504 21.9202 9.07981 27.125 15.5 27.125ZM15.5 28.4167C22.6339 28.4167 28.4167 22.6339 28.4167 15.5C28.4167 8.36614 22.6339 2.58334 15.5 2.58334C8.36617 2.58334 2.58337 8.36614 2.58337 15.5C2.58337 22.6339 8.36617 28.4167 15.5 28.4167Z" fill="black" fill-opacity="0.61"/>
<path d="M8 21.6984C8 21.0312 8.49858 20.4674 9.1625 20.3938C14.1451 19.8423 17.3775 19.892 22.3491 20.4061C22.5974 20.4322 22.8327 20.53 23.0263 20.6876C23.2199 20.8452 23.3634 21.0557 23.4393 21.2935C23.5152 21.5313 23.5202 21.7861 23.4536 22.0267C23.3871 22.2673 23.252 22.4834 23.0647 22.6484C17.1973 27.7628 13.8441 27.6924 8.41333 22.6536C8.14854 22.4082 8 22.0588 8 21.6984Z" fill="black" fill-opacity="0.61"/>
<path d="M20.6667 12.9167C20.6667 14.287 20.1224 15.6011 19.1534 16.5701C18.1845 17.539 16.8703 18.0833 15.5 18.0833C14.1298 18.0833 12.8156 17.539 11.8467 16.5701C10.8777 15.6011 10.3334 14.287 10.3334 12.9167C10.3334 11.5464 10.8777 10.2322 11.8467 9.26328C12.8156 8.29434 14.1298 7.75 15.5 7.75C16.8703 7.75 18.1845 8.29434 19.1534 9.26328C20.1224 10.2322 20.6667 11.5464 20.6667 12.9167V12.9167Z" fill="black" fill-opacity="0.61"/>
</svg>
