<svg width="92" height="92" viewBox="0 0 92 92" fill="none" xmlns="http://www.w3.org/2000/svg">
<path d="M64.8653 71.6865C62.9135 73.6344 59.7531 73.6344 57.8013 71.6865L54.1021 67.9946C52.6117 66.5071 50.1983 66.5071 48.7079 67.9946V67.9946C47.2132 69.4863 47.2132 71.9079 48.7079 73.3996L57.8013 82.475C59.7531 84.4229 62.9135 84.4229 64.8653 82.475L89.2921 58.0968C90.7868 56.6051 90.7868 54.1834 89.2921 52.6918V52.6918C87.8017 51.2043 85.3883 51.2043 83.8979 52.6918L64.8653 71.6865Z" fill="#C4C4C4"/>
<path d="M43.125 82.5C43.125 81.3954 42.2296 80.5 41.125 80.5H25C23.8954 80.5 23 79.6046 23 78.5V13.5C23 12.3954 23.8954 11.5 25 11.5H44C45.1046 11.5 46 12.3954 46 13.5V28.75C46.0046 30.2736 46.6118 31.7335 47.6892 32.8108C48.7665 33.8882 50.2264 34.4955 51.75 34.5H67C68.1046 34.5 69 35.3954 69 36.5V49.75C69 50.8546 69.8954 51.75 71 51.75H72.75C73.8546 51.75 74.75 50.8546 74.75 49.75V28.75C74.7601 28.3722 74.6883 27.9966 74.5394 27.6492C74.3905 27.3018 74.1681 26.9907 73.8875 26.7375L53.7625 6.6125C53.5094 6.33174 53.1984 6.10923 52.8509 5.96033C52.5035 5.81142 52.1279 5.73966 51.75 5.75H23C21.4764 5.75455 20.0165 6.36181 18.9392 7.43916C17.8618 8.51651 17.2546 9.97641 17.25 11.5V80.5C17.2546 82.0236 17.8618 83.4835 18.9392 84.5608C20.0165 85.6382 21.4764 86.2454 23 86.25H41.125C42.2296 86.25 43.125 85.3546 43.125 84.25V82.5ZM51.75 17.4784C51.75 15.6966 53.9043 14.8043 55.1642 16.0642L64.4358 25.3358C65.6957 26.5957 64.8034 28.75 63.0216 28.75H53.75C52.6454 28.75 51.75 27.8546 51.75 26.75V17.4784Z" fill="#C4C4C4"/>
</svg>
