<svg width="52" height="52" viewBox="0 0 52 52" fill="none" xmlns="http://www.w3.org/2000/svg">
<circle cx="26" cy="26" r="26" fill="#FFB800"/>
<path d="M28.4575 40.155H20C17.2386 40.155 15 37.9165 15 35.155V15.0123C15 13.9164 15.5872 12.9045 16.5388 12.3608V12.3608C17.0002 12.0971 17.5225 11.9584 18.0539 11.9584H26.2729C27.6657 11.9584 28.9954 12.5393 29.9417 13.5613L35.1367 19.1719C35.9925 20.0962 36.4679 21.3094 36.4679 22.569V29.9017" stroke="white" stroke-width="5"/>
<g clip-path="url(#clip0_95_36)">
<path d="M31.6172 38.3038L30.7716 41.953C30.7425 42.0864 30.7435 42.2246 30.7746 42.3576C30.8057 42.4906 30.8661 42.6149 30.9514 42.7215C31.0367 42.8282 31.1447 42.9144 31.2676 42.9739C31.3905 43.0334 31.5251 43.0648 31.6617 43.0656C31.7253 43.072 31.7894 43.072 31.8531 43.0656L35.5245 42.22L42.5737 35.1976L38.6397 31.2725L31.6172 38.3038Z" fill="white"/>
<path d="M44.7899 31.6819L42.1642 29.0563C41.9916 28.8845 41.758 28.7881 41.5145 28.7881C41.271 28.7881 41.0374 28.8845 40.8648 29.0563L39.4051 30.5159L43.3346 34.4455L44.7943 32.9858C44.8797 32.9 44.9474 32.7981 44.9934 32.6861C45.0394 32.574 45.0629 32.454 45.0625 32.3329C45.0621 32.2118 45.0378 32.092 44.991 31.9803C44.9442 31.8685 44.8759 31.7672 44.7899 31.6819V31.6819Z" fill="white"/>
</g>
<defs>
<clipPath id="clip0_95_36">
<rect width="16.0208" height="16.0208" fill="white" transform="translate(29.7392 27.9792)"/>
</clipPath>
</defs>
</svg>
